<svg width="134" height="53" viewBox="0 0 134 53" fill="none" xmlns="http://www.w3.org/2000/svg">
    <path fill-rule="evenodd" clip-rule="evenodd" d="M13.9165 0.543457L0.043457 26.4843L13.9165 52.4252H17.8817L31.7548 26.4843L22.8356 9.80693L20.853 13.5139L27.7922 26.4843L15.8991 48.7182L4.00607 26.4843L17.8817 0.543457H13.9165ZM21.8443 0.543457L7.97128 26.4843L16.8904 43.1617L18.8704 39.4548L11.9339 26.4843L23.8269 4.25041L35.7174 26.4843L21.8443 52.4252H25.8069L39.6826 26.4843L25.8069 0.543457H21.8443ZM56.2035 15.9478H52.8539V18.7835H56.2035C57.2574 18.7835 57.8261 18.1835 57.8261 17.3669C57.8261 16.5504 57.2574 15.9478 56.2035 15.9478ZM60.933 24.1756H57.98L56.1904 20.873H52.8539V24.1756H50.1643V13.8582H56.5661C59.1721 13.8582 60.5782 15.3478 60.5782 17.3643C60.5782 18.7156 59.9469 19.8295 58.7469 20.4191L60.933 24.1756ZM101.47 13.8608V19.9365C101.47 23.0408 103.757 24.3374 106.791 24.3374C109.825 24.3374 112.113 23.0408 112.113 19.9365V13.8608H109.405V19.9365C109.405 20.9826 109.019 22.2165 106.791 22.2165C104.563 22.2165 104.177 20.9826 104.177 19.9365V13.8608H101.47ZM66.1948 22.0756H72.4713V24.1756H63.5104V13.8608H72.3017V15.9608H66.1948V17.9722H71.7748V19.9522H66.1948V22.0756ZM123.677 22.0756H117.831V13.8608H115.15V24.1756H123.677V22.0756ZM94.0791 15.9843L92.3339 20.1608H95.8243L94.0791 15.9843ZM100.264 24.1756H97.5069L96.7061 22.2608H91.4574L90.6565 24.1756H87.8965L92.3391 13.8582H95.8217L100.264 24.1756ZM122.532 13.8608V15.9582H126.51V24.1756H129.195V15.9582H133.176V13.8608H122.532ZM86.1069 13.8608V24.1756H83.7878L77.6834 17.4008V24.1756H75.273V13.8608H77.5582L83.7069 20.6356V13.8608H86.1069ZM50.1643 30.6948H54.1426V38.8678H56.8269V30.6948H60.8078V28.6078H50.1643V30.6948ZM80.8843 36.9165C83.1122 36.9165 83.4982 35.6904 83.4982 34.6495V28.6104H86.2061V34.6495C86.2061 37.7382 83.9182 39.0269 80.8843 39.0269C77.8504 39.0269 75.5626 37.7382 75.5626 34.6495V28.6104H78.2704V34.6495C78.2704 35.6904 78.6565 36.9165 80.8843 36.9165ZM68.973 33.5043H65.6235V30.6843H68.973C70.0269 30.6843 70.5956 31.2843 70.5956 32.0956C70.5956 32.9069 70.0269 33.5043 68.973 33.5043ZM73.3478 32.093C73.3478 30.0869 71.9417 28.6052 69.3356 28.6052H62.9339V38.8652H65.6235V35.5808H68.96L70.7495 38.8652H73.7052L71.5191 35.1295C72.7191 34.5426 73.3504 33.4365 73.3504 32.093H73.3478ZM105.93 32.74L109.705 28.6861H112.997L108.286 33.7861L112.997 38.8861H109.705L105.928 34.8295H104.816V38.8678H102.135V28.6078H104.816V32.74H105.93ZM122.652 33.5226C121.81 33.1182 120.117 32.8443 118.971 32.6643L118.968 32.6638C117.998 32.5125 116.54 32.2852 116.54 31.5217C116.54 30.9061 117.218 30.5539 118.817 30.5539C120.416 30.5539 121.139 31.12 121.139 31.7148H123.753C123.753 29.9278 122.065 28.4435 118.778 28.4435C115.491 28.4435 113.79 30.0061 113.79 31.7461C113.79 32.56 114.203 33.1208 114.837 33.5878C115.577 34.133 116.79 34.3939 118.867 34.6808C120.677 34.9313 121.46 35.1374 121.46 35.9069C121.46 36.4208 120.868 36.9269 119.154 36.9269C117.44 36.9269 116.608 36.3974 116.608 35.6408H113.77C113.77 37.3939 115.267 39.0243 119.115 39.0243C122.73 39.0243 124.09 37.5269 124.09 35.7243C124.09 34.6991 123.531 33.9426 122.652 33.52V33.5226ZM96.1609 31.2895C95.6365 30.9061 94.9974 30.6791 94.2304 30.6791C93.3043 30.6791 92.553 30.9582 91.9791 31.5191C91.4052 32.0774 91.1182 32.8156 91.1182 33.7339C91.1182 34.6495 91.4052 35.3878 91.9791 35.9487C92.553 36.5069 93.3043 36.7887 94.2304 36.7887C94.9948 36.7887 95.6365 36.5617 96.1609 36.1782C96.6382 35.8287 96.9748 35.3852 97.16 34.7774H99.7869C99.68 35.7687 99.0304 37.0235 98.0287 37.8113C96.9617 38.6513 95.7252 39.0243 94.2252 39.0243C92.5635 39.0243 91.1782 38.5182 90.0695 37.5087C88.9608 36.4991 88.4078 35.2391 88.4078 33.7339C88.4078 32.2287 88.9608 30.9687 90.0695 29.9591C91.1782 28.9495 92.5635 28.4435 94.2252 28.4435C95.7252 28.4435 96.9617 28.8165 98.0287 29.6565C99.0304 30.4417 99.68 31.6991 99.7869 32.6904H97.16C96.9748 32.0826 96.6382 31.6365 96.1609 31.2895Z" fill="white"></path>
</svg>
